<?xml version="1.0" standalone="no"?>
<!DOCTYPE svg PUBLIC "-//W3C//DTD SVG 20010904//EN"
 "http://www.w3.org/TR/2001/REC-SVG-20010904/DTD/svg10.dtd">
<svg version="1.0" xmlns="http://www.w3.org/2000/svg"
 width="16.000000pt" height="16.000000pt" viewBox="0 0 16.000000 16.000000"
 preserveAspectRatio="xMidYMid meet">
<metadata>
Created by potrace 1.11, written by Peter Selinger 2001-2013
</metadata>
<g transform="translate(0.000000,16.000000) scale(0.002286,-0.002286)"
fill="#000000" stroke="none">
<path d="M2275 6773 c-296 -14 -541 -83 -690 -193 -173 -128 -278 -320 -329
-600 -18 -101 -36 -295 -36 -401 l0 -76 57 1 57 1 21 -73 c14 -51 29 -81 52
-104 l32 -31 -6 109 c-6 106 6 275 28 419 23 145 68 216 146 231 25 5 97 -4
218 -25 269 -49 398 -62 625 -62 225 0 386 16 600 58 165 32 265 35 303 10 58
-37 87 -142 108 -385 6 -79 9 -191 6 -250 l-6 -106 32 32 c23 23 38 53 52 104
l21 73 47 0 47 0 0 76 c0 41 -5 136 -10 210 -53 686 -315 934 -1035 979 -152
9 -204 10 -340 3z"/>
<path d="M1954 5410 c-87 -20 -149 -97 -148 -185 2 -80 41 -138 116 -170 129
-53 275 62 254 199 -17 104 -123 179 -222 156z"/>
<path d="M2885 5410 c-79 -18 -125 -63 -145 -142 -28 -111 64 -228 180 -228
110 0 204 112 185 219 -18 100 -125 173 -220 151z"/>
<path d="M2117 4653 c-26 -26 22 -117 90 -171 73 -57 122 -75 213 -80 100 -5
169 16 243 74 71 55 143 174 106 174 -5 0 -40 -18 -76 -40 -84 -50 -152 -70
-245 -70 -104 0 -154 17 -289 98 -20 12 -39 19 -42 15z"/>
<path d="M4805 4082 c-31 -7 -53 -30 -68 -76 -10 -30 -12 -48 -5 -60 6 -10 7
-37 3 -62 -7 -48 2 -73 44 -117 l26 -28 -180 -537 c-175 -521 -181 -537 -205
-536 -14 1 -82 4 -151 8 l-127 7 -141 -423 c-78 -233 -141 -427 -141 -431 0
-4 9 -3 21 3 29 16 122 15 161 -1 18 -7 66 -35 107 -62 122 -82 237 -110 359
-87 77 14 115 30 207 90 90 59 123 72 185 72 62 0 95 -13 185 -72 39 -25 88
-54 110 -63 42 -18 130 -37 171 -37 l24 0 0 184 c0 102 3 187 8 189 4 3 292
58 640 123 l632 119 0 117 c0 65 -3 118 -7 117 -5 0 -446 28 -980 63 -679 44
-973 66 -973 74 0 11 93 290 256 769 l75 220 57 17 c112 34 150 73 172 179 21
99 -3 125 -165 178 -148 49 -259 72 -300 63z"/>
<path d="M1836 4000 c-54 -21 -106 -65 -141 -121 -26 -40 -49 -139 -40 -169
13 -41 163 -865 159 -870 -4 -3 -1092 64 -1413 88 l-74 5 5 -109 c11 -236 133
-539 337 -834 71 -103 187 -256 200 -264 5 -3 39 15 77 41 92 62 126 75 195
74 64 0 103 -16 201 -83 74 -51 136 -74 218 -83 120 -13 221 18 349 105 74 51
104 62 173 61 63 0 100 -16 208 -88 176 -116 362 -108 554 24 72 50 113 64
178 64 63 0 100 -16 208 -88 77 -50 135 -71 231 -79 59 -6 68 -4 77 12 17 35
345 1005 340 1009 -2 3 -150 14 -329 25 -178 11 -338 23 -355 25 l-30 5 -31
203 c-17 111 -29 203 -27 205 1 2 168 -48 371 -111 l368 -114 9 31 c34 124
102 312 120 333 19 22 30 26 73 25 44 -1 51 1 57 21 3 12 2 25 -2 28 -4 4
-248 83 -542 175 -294 92 -536 168 -538 169 -1 1 -12 69 -25 151 l-22 149
-545 2 c-517 2 -548 1 -594 -17z"/>
<path d="M4345 3278 c-3 -7 -12 -33 -20 -57 l-15 -45 34 -35 c39 -40 56 -77
57 -124 0 -23 14 7 45 98 24 71 41 132 36 136 -10 9 -102 39 -119 39 -8 0 -16
-6 -18 -12z"/>
<path d="M2178 1410 c-81 -13 -172 -37 -258 -68 l-75 -27 145 -7 c173 -8 285
-27 672 -112 313 -69 469 -100 558 -111 30 -3 67 -8 83 -11 24 -5 29 -1 41 28
31 76 32 75 -26 88 -29 7 -147 41 -263 77 -271 82 -374 110 -476 129 -103 18
-324 26 -401 14z"/>
<path d="M4755 1413 c-83 -11 -189 -36 -270 -65 l-90 -33 145 -7 c173 -8 284
-27 672 -112 161 -35 329 -72 373 -80 328 -65 625 -61 780 10 l50 23 -100 -6
c-199 -11 -369 20 -773 142 -290 87 -372 107 -512 124 -81 11 -212 12 -275 4z"/>
<path d="M3709 1143 c-80 -3 -87 -6 -93 -26 -12 -44 -10 -45 64 -31 65 12 190
52 190 60 0 2 -17 3 -37 2 -21 -1 -77 -4 -124 -5z"/>
<path d="M885 760 c-95 -14 -295 -77 -295 -92 0 -5 46 -8 103 -8 136 0 288
-25 672 -109 555 -122 776 -149 980 -122 82 11 230 52 247 69 4 4 -55 6 -130
4 -218 -5 -356 21 -732 137 -223 68 -363 105 -467 120 -80 12 -300 13 -378 1z"/>
<path d="M3549 714 c29 -32 58 -68 63 -79 8 -18 49 -29 296 -83 367 -80 471
-100 612 -117 217 -27 387 -16 532 32 l83 28 -185 6 c-226 8 -317 26 -668 134
-360 110 -436 126 -627 132 l-160 6 54 -59z"/>
</g>
</svg>
