<svg version="1" xmlns="http://www.w3.org/2000/svg" width="21.333" height="21.333" viewBox="0 0 16 16"><path d="M5.2.517c-.676.032-1.236.19-1.577.441-.395.293-.635.732-.752 1.372a6.73 6.73 0 0 0-.082.916v.174l.13-.002.13-.002.049.166a.5.5 0 0 0 .118.238l.074.071-.014-.25a5.274 5.274 0 0 1 .064-.957c.052-.331.155-.494.334-.528.057-.011.221.01.498.057.615.112.91.142 1.429.142.514 0 .882-.037 1.371-.133.377-.073.606-.08.693-.023.133.085.199.325.247.88.014.181.02.437.014.572l-.014.242.073-.073a.5.5 0 0 0 .119-.238l.048-.166h.215v-.174c0-.094-.012-.311-.023-.48C8.223 1.194 7.624.627 5.978.524A5.555 5.555 0 0 0 5.2.517z"/><path d="M4.467 3.633a.432.432 0 0 0-.338.423.407.407 0 0 0 .265.388c.295.121.628-.141.58-.455-.039-.237-.28-.409-.507-.356zM6.595 3.633a.406.406 0 0 0-.331.324.432.432 0 0 0 .411.522.446.446 0 0 0 .423-.501c-.041-.229-.286-.396-.503-.345zM4.84 5.363c-.06.06.05.268.205.391a.74.74 0 0 0 .487.183.754.754 0 0 0 .556-.17c.162-.125.327-.397.242-.397a1 1 0 0 0-.174.092 1 1 0 0 1-.56.16c-.238 0-.352-.04-.66-.224-.046-.028-.09-.044-.097-.035zM10.984 6.669c-.07.016-.12.068-.155.173-.023.069-.028.11-.012.137.014.023.016.085.007.142-.016.11.005.167.1.268l.06.064-.411 1.227c-.4 1.191-.414 1.228-.469 1.226-.032-.003-.187-.01-.345-.019l-.29-.016-.323.967c-.178.533-.322.976-.322.985 0 .01.02.007.048-.006.066-.037.279-.035.368.002.041.016.15.08.245.142.279.187.541.251.82.199.176-.032.263-.07.473-.206.206-.135.282-.165.423-.165.142 0 .218.03.423.165.09.057.201.123.252.144.096.04.297.084.39.084h.056v-.42c0-.233.006-.428.018-.432.009-.007.667-.133 1.463-.281l1.445-.273v-.267c0-.149-.007-.27-.016-.267-.012 0-1.02-.064-2.24-.144-1.553-.101-2.225-.151-2.225-.17 0-.025.213-.663.585-1.758l.172-.502.13-.04c.256-.077.343-.166.393-.409.048-.226-.007-.285-.377-.406-.338-.112-.592-.165-.686-.144zM4.197 6.856a.692.692 0 0 0-.322.277c-.06.091-.112.317-.092.386.03.094.373 1.977.364 1.989-.01.007-2.497-.147-3.23-.201l-.17-.012.012.25c.025.539.304 1.231.77 1.906.163.235.428.585.458.603.011.007.089-.034.176-.093.21-.142.288-.172.445-.17.147 0 .236.037.46.19.169.117.31.17.498.19.274.03.505-.041.798-.24.17-.117.238-.142.395-.14.144 0 .23.037.476.202.402.265.827.247 1.266-.055.165-.115.259-.147.407-.147.144 0 .229.037.476.202.176.114.308.162.528.18.135.014.155.01.176-.027.039-.08.789-2.298.777-2.307a12.795 12.795 0 0 0-.752-.057 36.603 36.603 0 0 1-.812-.057l-.068-.012-.071-.464a5.941 5.941 0 0 1-.062-.468c.003-.005.384.11.848.254l.842.26.02-.07c.078-.284.233-.714.275-.762.043-.05.068-.06.166-.057.101.002.117-.002.13-.048.008-.028.005-.057-.004-.064-.009-.01-.567-.19-1.239-.4l-1.23-.386a10.763 10.763 0 0 1-.057-.346l-.05-.34-1.246-.005c-1.182-.004-1.253-.002-1.358.039z"/><path d="M9.933 8.506a2.907 2.907 0 0 0-.046.13l-.034.104.077.08c.09.091.128.176.13.283 0 .053.033-.016.104-.224.054-.162.093-.302.082-.31a1.117 1.117 0 0 0-.272-.09c-.018 0-.037.014-.041.027zM4.979 12.777c-.185.03-.393.084-.59.155l-.171.062.331.016c.396.018.652.062 1.536.256.716.158 1.072.229 1.276.254.069.007.153.018.19.025.055.011.066.002.093-.064.071-.174.074-.172-.06-.201a15.837 15.837 0 0 1-.6-.176c-.62-.188-.855-.252-1.088-.295-.236-.041-.741-.06-.917-.032zM10.87 12.77c-.19.025-.432.082-.617.148l-.206.076.331.016c.396.018.65.062 1.537.256.368.08.752.165.852.183.75.148 1.43.14 1.783-.023l.115-.053-.229.014c-.455.025-.843-.046-1.767-.325-.663-.198-.85-.244-1.17-.283a3.077 3.077 0 0 0-.63-.01zM8.479 13.387c-.183.007-.2.014-.213.06-.027.1-.023.102.146.07.15-.027.435-.118.435-.137 0-.004-.039-.007-.085-.004-.048.002-.176.009-.283.011zM2.023 14.263c-.217.032-.674.176-.674.21 0 .011.105.018.235.018.311 0 .659.057 1.536.25 1.27.278 1.774.34 2.24.278.188-.025.526-.119.565-.157.01-.01-.125-.014-.297-.01-.498.012-.814-.048-1.673-.313-.51-.155-.83-.24-1.068-.274a4.548 4.548 0 0 0-.864-.002zM8.113 14.368a1.3 1.3 0 0 1 .144.18c.018.042.112.067.677.19.839.183 1.076.229 1.399.268.496.061.884.036 1.216-.074l.19-.064-.423-.013c-.517-.019-.725-.06-1.527-.307-.823-.251-.997-.288-1.434-.301l-.365-.014.123.135z"/></svg>
